# xmcd
#
# Track frame offsets:
#	225
#	12009
#	20897
#	32798
#	42989
#	53721
#	68279
#	79430
#	90044
#	99351
#	111074
#	121835
#	133760
#	146852
#	158122
#	170919
#	182303
#	192088
#
# Disc length: 2700 seconds
#
# Revision: 0
# Processed by: cddbd v1.5.1PL0 Copyright (c) Steve Scherf et al.
# Submitted via: EasyCDDAExtractor 8.0.2.1
#
DISCID=e50a8912
DTITLE=Patsy Cline - I'm Blue Again
DYEAR=1900
DGENRE=Country
TTITLE0=Walkin' After Midnight
TTITLE1=Try Again
TTITLE2=Today, Tomorrow And Forever
TTITLE3=Three Cigarettes In An Ashtray
TTITLE4=I Don't Wanna
TTITLE5=Then You'll Know
TTITLE6=Stop The World (And Let Me Off)
TTITLE7=Walking Dream
TTITLE8=Come On In
TTITLE9=Let The Teardrops Fall
TTITLE10=I Can See An Angel
TTITLE11=Never No More
TTITLE12=If I Could See The World
TTITLE13=Just Out Of Reach
TTITLE14=Yes I Understand
TTITLE15=Cry Not For Me
TTITLE16=I'm Blue Again
TTITLE17=Got A Lot Of Rhythm In My Soul
EXTD=
EXTT0=
EXTT1=
EXTT2=
EXTT3=
EXTT4=
EXTT5=
EXTT6=
EXTT7=
EXTT8=
EXTT9=
EXTT10=
EXTT11=
EXTT12=
EXTT13=
EXTT14=
EXTT15=
EXTT16=
EXTT17=
PLAYORDER=
